#define command2_width 16
#define command2_height 16
static unsigned char command2_bits[] = {
   0xff, 0xff, 0xff, 0xff, 0xff, 0xff, 0xf7, 0xff, 0xe7, 0xff, 0xcf, 0xff,
   0x9f, 0xff, 0x3f, 0xff, 0x3f, 0xff, 0x9f, 0xff, 0xcf, 0xff, 0xe7, 0xc1,
   0xf7, 0xc1, 0xff, 0xff, 0xff, 0xff, 0xff, 0xff };
